<svg xmlns="http://www.w3.org/2000/svg" viewBox="-3 -3 54 54">
	<path fill="#4b31aa" d="M37,8H11a3,3,0,0,0-3,3v3a1,1,0,0,0,1,1H39a1,1,0,0,0,1-1V11A3,3,0,0,0,37,8Zm1,5H10V11a1,1,0,0,1,1-1H37a1,1,0,0,1,1,1Z"/>
	<path fill="#5e8bcc" d="M38,11v2H10V11a1,1,0,0,1,1-1H37A1,1,0,0,1,38,11Z"/>
	<path fill="#4b31aa" d="M29 10H19a1 1 0 0 1-1-1V7a3 3 0 0 1 3-3h6a3 3 0 0 1 3 3V9A1 1 0 0 1 29 10zM20 8h8V7a1 1 0 0 0-1-1H21a1 1 0 0 0-1 1zM37 13H11a1 1 0 0 0-1 1v3a.94.94 0 0 0 .07.37L12 22.19V40a4 4 0 0 0 4 4H32a4 4 0 0 0 4-4V22.19l1.93-4.82A.94.94 0 0 0 38 17V14A1 1 0 0 0 37 13zm-1 3.81l-1.93 4.82A.94.94 0 0 0 34 22V40a2 2 0 0 1-2 2H16a2 2 0 0 1-2-2V22a.94.94 0 0 0-.07-.37L12 16.81V15H36z"/>
	<path fill="#5e8bcc" d="M36,15v1.81l-1.93,4.82A.94.94,0,0,0,34,22V40a2,2,0,0,1-2,2H16a2,2,0,0,1-2-2V22a.94.94,0,0,0-.07-.37L12,16.81V15Z"/>
	<path fill="#4b31aa" d="M35,41H13a1,1,0,0,1,0-2H35a1,1,0,0,1,0,2Z"/>
	<path fill="#f7931e" d="M18 37a1 1 0 0 1-1-1V23a1 1 0 0 1 2 0V36A1 1 0 0 1 18 37zM24 37a1 1 0 0 1-1-1V23a1 1 0 0 1 2 0V36A1 1 0 0 1 24 37zM30 37a1 1 0 0 1-1-1V23a1 1 0 0 1 2 0V36A1 1 0 0 1 30 37z"/>
	<circle cx="20" cy="18" r="1" fill="#f9d015"/>
	<circle cx="24" cy="18" r="1" fill="#f9d015"/>
	<circle cx="24" cy="24.3" r="25" stroke="#0000ff"  stroke-width="3" fill="none"/>
	<path fill="#f9d015" d="M29,18a1,1,0,1,1-1-1,1,1,0,0,1,1,1"/>
</svg>