<svg xmlns="http://www.w3.org/2000/svg" viewBox="-3 -3 17.116 17.643">
	<g transform="translate(-266.697 -66.164)">
		<path fill="#4fc3f7" style="line-height:normal;font-variant-ligatures:normal;font-variant-position:normal;font-variant-caps:normal;font-variant-numeric:normal;font-variant-alternates:normal;font-variant-east-asian:normal;font-feature-settings:normal;font-variation-settings:normal;text-indent:0;text-align:start;text-decoration-line:none;text-decoration-style:solid;text-decoration-color:#000;text-transform:none;text-orientation:mixed;shape-padding:0;shape-margin:0;inline-size:0;isolation:auto;mix-blend-mode:normal" d="m 272.96371,75.972621 c -0.36238,6e-6 -0.70485,0.259337 -0.70488,0.633037 v 0.917774 a 0.26460995,0.26460995 0 0 0 0.26355,0.263551 h 2.64221 a 0.26460995,0.26460995 0 0 0 0.26408,-0.263551 v -0.917774 c 0,-0.373708 -0.34303,-0.633031 -0.70538,-0.633037 z" color="#000" font-family="sans-serif" font-weight="400" overflow="visible"/>
		<path fill="#ffcc80" style="line-height:normal;font-variant-ligatures:normal;font-variant-position:normal;font-variant-caps:normal;font-variant-numeric:normal;font-variant-alternates:normal;font-variant-east-asian:normal;font-feature-settings:normal;font-variation-settings:normal;text-indent:0;text-align:start;text-decoration-line:none;text-decoration-style:solid;text-decoration-color:#000;text-transform:none;text-orientation:mixed;shape-padding:0;shape-margin:0;inline-size:0;isolation:auto;mix-blend-mode:normal" d="m 277.08789,67.222769 c 0.40928,5e-6 0.49607,0.354893 0.46405,0.761711 l -0.29345,3.728456 c 0,0.06324 -0.0233,0.124285 -0.0646,0.172082 -0.76083,0.879655 -1.52162,1.760956 -2.28875,2.636531 -2.6e-4,0.38233 0.003,0.76632 -0.003,1.152384 -0.003,0.146122 -0.12155,0.263187 -0.26768,0.261483 l -1.58757,-0.01757 c -0.14531,-0.0019 -0.26202,-0.120303 -0.26147,-0.265615 l 0.26459,-2.546098 c 0,-0.06719 0.0246,-0.132038 0.0703,-0.181386 l 0.9865,-1.052647 0.8201,-0.879017 c 0.26567,-0.284253 0.71094,-0.522219 0.99425,-0.264584 l 0.43926,-2.785358 c 0.0278,-0.176094 0.0952,-0.344586 0.21498,-0.482142 0.11972,-0.137555 0.30562,-0.238231 0.5116,-0.238229 z" color="#000" font-family="sans-serif" font-weight="400" overflow="visible"/>
		<path fill="#4fc3f7" d="m 1019.668,287.14062 c -1.3696,2e-5 -2.664,0.98017 -2.6641,2.39258 v 3.46875 a 1.0001006,1.0001006 0 0 0 0.9961,0.9961 h 9.9863 a 1.0001006,1.0001006 0 0 0 0.9981,-0.9961 v -3.46875 c 0,-1.41244 -1.2965,-2.39256 -2.666,-2.39258 z" color="#000" font-family="sans-serif" font-weight="400" overflow="visible" transform="scale(.26458)" style="line-height:normal;font-variant-ligatures:normal;font-variant-position:normal;font-variant-caps:normal;font-variant-numeric:normal;font-variant-alternates:normal;font-variant-east-asian:normal;font-feature-settings:normal;font-variation-settings:normal;text-indent:0;text-align:start;text-decoration-line:none;text-decoration-style:solid;text-decoration-color:#000;text-transform:none;text-orientation:mixed;shape-padding:0;shape-margin:0;inline-size:0;isolation:auto;mix-blend-mode:normal"/>
		<path fill="#ffcc80" d="m 1010.7402,254.07031 c -1.5469,2e-5 -1.8749,1.34133 -1.7539,2.87891 l 1.1091,14.0918 c 0,0.23901 0.088,0.46974 0.2442,0.65039 2.8756,3.32468 5.751,6.65558 8.6504,9.96484 10e-4,1.44503 -0.01,2.89633 0.01,4.35547 0.01,0.55227 0.4594,0.99472 1.0117,0.98828 l 6.0003,-0.0664 c 0.5492,-0.007 0.9903,-0.45469 0.9882,-1.0039 l -1,-9.62305 c 0,-0.25395 -0.093,-0.49904 -0.2656,-0.68555 l -3.7285,-3.97851 -3.0996,-3.32227 c -1.0041,-1.07434 -2.687,-1.97374 -3.7578,-1 l -1.6602,-10.52734 c -0.105,-0.66555 -0.3599,-1.30237 -0.8125,-1.82227 -0.4525,-0.51989 -1.1551,-0.9004 -1.9336,-0.90039 z" color="#000" font-family="sans-serif" font-weight="400" overflow="visible" transform="scale(.26458)" style="line-height:normal;font-variant-ligatures:normal;font-variant-position:normal;font-variant-caps:normal;font-variant-numeric:normal;font-variant-alternates:normal;font-variant-east-asian:normal;font-feature-settings:normal;font-variation-settings:normal;text-indent:0;text-align:start;text-decoration-line:none;text-decoration-style:solid;text-decoration-color:#000;text-transform:none;text-orientation:mixed;shape-padding:0;shape-margin:0;inline-size:0;isolation:auto;mix-blend-mode:normal"/>
		<path fill="#424242" d="m 277.02539,66.958984 c -0.21786,-2e-6 -0.41583,0.09769 -0.54687,0.240235 -0.13105,0.142541 -0.20522,0.322793 -0.23633,0.509765 l -0.5,3.00586 c -0.009,-0.01006 0.01,-0.02547 0,-0.03516 -0.30437,-0.308345 -0.81086,-0.308342 -1.11524,0 l -0.92383,0.935546 -1.10742,1.123047 a 0.26460975,0.26460975 0 0 0 -0.0762,0.185547 v 2.992188 h 0.5293 V 73.03125 l 1.03125,-1.044922 0.92383,-0.935547 c 0.10488,-0.106248 0.25645,-0.106244 0.36132,0 0.10488,0.106242 0.10487,0.270718 0,0.376953 l -1.29296,1.310547 0.37695,0.371094 1.29297,-1.310547 0.36914,-0.373047 a 0.26460975,0.26460975 0 0 0 0.0723,-0.142578 l 0.58008,-3.488281 c 0.017,-0.102106 0.0597,-0.186557 0.10547,-0.236328 0.0458,-0.04977 0.0847,-0.07031 0.15625,-0.07031 0.14551,2e-6 0.25781,0.110693 0.25781,0.263672 v 3.867188 l -1.18164,1.308593 0.39258,0.353516 1.25,-1.382812 a 0.26460975,0.26460975 0 0 0 0.0684,-0.177735 v -3.96875 c 0,-0.433331 -0.35388,-0.792964 -0.78711,-0.792969 z m -1.29883,6.347657 -1.02148,1.123047 a 0.26460975,0.26460975 0 0 0 -0.0684,0.177734 v 1.123047 h 0.5293 v -1.021485 l 0.95312,-1.046875 z" color="#000" font-family="sans-serif" font-weight="400" overflow="visible" style="line-height:normal;font-variant-ligatures:normal;font-variant-position:normal;font-variant-caps:normal;font-variant-numeric:normal;font-variant-alternates:normal;font-variant-east-asian:normal;font-feature-settings:normal;font-variation-settings:normal;text-indent:0;text-align:start;text-decoration-line:none;text-decoration-style:solid;text-decoration-color:#000;text-transform:none;text-orientation:mixed;shape-padding:0;shape-margin:0;inline-size:0;isolation:auto;mix-blend-mode:normal"/>
		<path fill="#424242" d="m 272.78516,75.689453 c -0.43517,6e-6 -0.79493,0.357811 -0.79493,0.792969 v 1.324219 h 0.5293 v -1.324219 c 0,-0.151168 0.11445,-0.26367 0.26563,-0.263672 h 2.11523 c 0.15116,2e-6 0.26563,0.112521 0.26563,0.263672 v 1.324219 h 0.52929 v -1.324219 c 0,-0.435161 -0.35976,-0.792964 -0.79492,-0.792969 z" color="#000" font-family="sans-serif" font-weight="400" overflow="visible" style="line-height:normal;font-variant-ligatures:normal;font-variant-position:normal;font-variant-caps:normal;font-variant-numeric:normal;font-variant-alternates:normal;font-variant-east-asian:normal;font-feature-settings:normal;font-variation-settings:normal;text-indent:0;text-align:start;text-decoration-line:none;text-decoration-style:solid;text-decoration-color:#000;text-transform:none;text-orientation:mixed;shape-padding:0;shape-margin:0;inline-size:0;isolation:auto;mix-blend-mode:normal"/>
		<path fill="none" stroke="#000" stroke-linejoin="round" stroke-width=".529" d="m 271.72609,75.916615 v -2.99342 l -1.10807,-1.122532 -0.92339,-0.935446 c -0.20462,-0.207295 -0.53408,-0.207289 -0.7387,5e-6 -0.20463,0.207294 -0.20463,0.541061 -1e-5,0.74835 l 1.29275,1.309625 m -0.64025,2.80633 v -1.122531 c -0.88696,-0.957736 -1.76644,-1.922334 -2.64683,-2.886109 v -3.96875 c 0,-0.293155 0.23297,-0.529164 0.52235,-0.529167 0.28938,-3e-6 0.47424,0.240085 0.52234,0.529163 l 0.58029,3.487263 1.6621,1.683801"/>
		<path fill="#aed581" d="m 1019.9785,250.99805 a 1.0001006,1.0001006 0 0 0 -0.9668,1.14453 c 0,0 0.4139,3.08831 1.5645,5.66211 0.5753,1.2869 1.314,2.53023 2.5898,3.12304 0.638,0.29639 1.4162,0.36382 2.1641,0.13282 0.7479,-0.23101 1.4575,-0.71315 2.1699,-1.43946 0.7124,-0.7263 1.1866,-1.44707 1.4102,-2.19921 0.2233,-0.75215 0.1544,-1.535 -0.1329,-2.17774 -0.5746,-1.28547 -1.7984,-2.04066 -3.0644,-2.62891 -2.5321,-1.17649 -5.5645,-1.60156 -5.5645,-1.60156 A 1.0001006,1.0001006 0 0 0 1019.9785,251 Z" color="#000" font-family="sans-serif" font-weight="400" overflow="visible" transform="scale(.26458)" style="line-height:normal;font-variant-ligatures:normal;font-variant-position:normal;font-variant-caps:normal;font-variant-numeric:normal;font-variant-alternates:normal;font-variant-east-asian:normal;font-feature-settings:normal;font-variation-settings:normal;text-indent:0;text-align:start;text-decoration-line:none;text-decoration-style:solid;text-decoration-color:#000;text-transform:none;text-orientation:mixed;shape-padding:0;shape-margin:0;inline-size:0;isolation:auto;mix-blend-mode:normal"/>
		<path fill="#aed581" style="line-height:normal;font-variant-ligatures:normal;font-variant-position:normal;font-variant-caps:normal;font-variant-numeric:normal;font-variant-alternates:normal;font-variant-east-asian:normal;font-feature-settings:normal;font-variation-settings:normal;text-indent:0;text-align:start;text-decoration-line:none;text-decoration-style:solid;text-decoration-color:#000;text-transform:none;text-orientation:mixed;shape-padding:0;shape-margin:0;inline-size:0;isolation:auto;mix-blend-mode:normal" d="m 274.6435,66.4099 a 0.26460995,0.26460995 0 0 1 0.2558,0.302823 c 0,0 -0.10951,0.817116 -0.41394,1.4981 -0.15221,0.340493 -0.34766,0.669457 -0.68522,0.826305 -0.1688,0.07842 -0.3747,0.09626 -0.57258,0.03514 -0.19788,-0.06112 -0.38563,-0.188688 -0.57412,-0.380857 -0.18849,-0.192167 -0.31395,-0.382871 -0.37312,-0.581875 -0.0591,-0.199006 -0.0408,-0.406135 0.0352,-0.576193 0.15203,-0.340114 0.47582,-0.539925 0.81079,-0.695566 0.66995,-0.31128 1.47227,-0.423746 1.47227,-0.423746 a 0.26460995,0.26460995 0 0 1 0.0449,-0.0036 z" color="#000" font-family="sans-serif" font-weight="400" overflow="visible"/>
		<path fill="#424242" d="m 271.99023,68.017578 v 2.38086 h 0.5293 v -2.38086 z" color="#000" font-family="sans-serif" font-weight="400" overflow="visible" style="line-height:normal;font-variant-ligatures:normal;font-variant-position:normal;font-variant-caps:normal;font-variant-numeric:normal;font-variant-alternates:normal;font-variant-east-asian:normal;font-feature-settings:normal;font-variation-settings:normal;text-indent:0;text-align:start;text-decoration-line:none;text-decoration-style:solid;text-decoration-color:#000;text-transform:none;text-orientation:mixed;shape-padding:0;shape-margin:0;inline-size:0;isolation:auto;mix-blend-mode:normal"/>
		<path fill="#424242" d="m 269.60352,66.164062 a 0.26460978,0.26460978 0 0 0 -0.25782,0.302735 c 0,0 0.14017,1.000386 0.51563,1.824219 0.18773,0.411916 0.42973,0.802632 0.82422,0.982422 0.19724,0.08989 0.43368,0.109451 0.66601,0.03906 0.23233,-0.07039 0.45875,-0.220463 0.68946,-0.451172 0.23071,-0.230709 0.38078,-0.457121 0.45117,-0.689453 0.0704,-0.232332 0.0489,-0.46877 -0.041,-0.666016 -0.17979,-0.39449 -0.56855,-0.636487 -0.98047,-0.824218 -0.82383,-0.375463 -1.82422,-0.513672 -1.82422,-0.513672 a 0.26460978,0.26460978 0 0 0 -0.043,-0.0039 z m 0.38476,0.644532 c 0.3035,0.05581 0.72199,0.107532 1.26172,0.353515 0.35927,0.163737 0.63689,0.378603 0.7207,0.5625 0.0419,0.09195 0.052,0.174932 0.0156,0.294922 -0.0364,0.119991 -0.13131,0.279743 -0.32031,0.46875 -0.18901,0.189007 -0.34681,0.282007 -0.4668,0.31836 -0.11999,0.03635 -0.20297,0.02628 -0.29492,-0.01563 -0.1839,-0.08381 -0.39877,-0.359482 -0.5625,-0.71875 -0.24607,-0.539924 -0.29775,-0.960331 -0.35352,-1.263672 z" color="#000" font-family="sans-serif" font-weight="400" overflow="visible" style="line-height:normal;font-variant-ligatures:normal;font-variant-position:normal;font-variant-caps:normal;font-variant-numeric:normal;font-variant-alternates:normal;font-variant-east-asian:normal;font-feature-settings:normal;font-variation-settings:normal;text-indent:0;text-align:start;text-decoration-line:none;text-decoration-style:solid;text-decoration-color:#000;text-transform:none;text-orientation:mixed;shape-padding:0;shape-margin:0;inline-size:0;isolation:auto;mix-blend-mode:normal"/>
		<path fill="#424242" d="M271.12109 67.566406l-.375.375.93555.935547.375-.375zM274.89258 66.166016a.26460978.26460978 0 0 0-.0137.002c0 0-1.00039.138209-1.82422.513672-.41192.187731-.80263.429728-.98242.824218-.0899.197245-.11141.433684-.041.666016.0704.232332.22046.458744.45117.689453.23071.230709.45712.380783.68946.451172.23233.07039.47072.05083.66796-.03906.39449-.17979.63649-.570506.82422-.982422.37547-.823833.51367-1.824219.51367-1.824219a.26460978.26460978 0 0 0-.28515-.300781zm-.35547.642578c-.0558.303296-.10937.723694-.35547 1.263672-.16374.359268-.3786.634938-.5625.71875-.0919.04191-.17298.05198-.29297.01563-.11999-.03635-.27974-.129353-.46875-.31836-.189-.189007-.282-.348759-.31836-.46875-.0364-.11999-.0263-.202972.0156-.294922.0838-.183898.35948-.398762.71875-.5625.5405-.246336.96081-.297877 1.26367-.353515z" color="#000" font-family="sans-serif" font-weight="400" overflow="visible" style="line-height:normal;font-variant-ligatures:normal;font-variant-position:normal;font-variant-caps:normal;font-variant-numeric:normal;font-variant-alternates:normal;font-variant-east-asian:normal;font-feature-settings:normal;font-variation-settings:normal;text-indent:0;text-align:start;text-decoration-line:none;text-decoration-style:solid;text-decoration-color:#000;text-transform:none;text-orientation:mixed;shape-padding:0;shape-margin:0;inline-size:0;isolation:auto;mix-blend-mode:normal"/>
		<path fill="#424242" d="M273.4043 67.566406l-.93555.935547.37305.375.93554-.935547zM271.99023 75.935417v-3.011589c-.00006-.06945-.0274-.13609-.0762-.185547l-1.10742-1.123047-.92383-.935546c-.30437-.30835-.81087-.308345-1.11523 0-.01.0097.009.0251 0 .03516l-.5-3.00586c-.0311-.186975-.10529-.367223-.23633-.509765-.13104-.142543-.32901-.240237-.54687-.240235-.43324.000005-.78711.359638-.78711.792969v3.96875c-.00006.06567.0243.129025.0684.177735.857.938162 1.71413 1.878798 2.57813 2.8125.00034.407257-.002.815696.002 1.226562m.5293-.0021c-.001-.352596-.001-.972668-.002-1.327995.00001-.06661-.0251-.130778-.0703-.179688-.86256-.931396-1.71905-1.870212-2.57617-2.808593V67.75194c0-.152979.11229-.26367.25782-.263672.0715 0 .11049.02054.15624.07031.0458.04977.0885.134225.10547.236328l.58008 3.488281c.009.05384.0341.103639.0723.142578l.36914.373047 1.29297 1.310547.37695-.371094-1.29297-1.310547c-.10487-.106235-.10488-.270709 0-.376953.10487-.106243.25646-.106241.36133 0l.92383.935547 1.03125 1.044922v2.904167" color="#000" font-family="sans-serif" font-weight="400" overflow="visible" style="line-height:normal;font-variant-ligatures:normal;font-variant-position:normal;font-variant-caps:normal;font-variant-numeric:normal;font-variant-alternates:normal;font-variant-east-asian:normal;font-feature-settings:normal;font-variation-settings:normal;text-indent:0;text-align:start;text-decoration-line:none;text-decoration-style:solid;text-decoration-color:#000;text-transform:none;text-orientation:mixed;shape-padding:0;shape-margin:0;inline-size:0;isolation:auto;mix-blend-mode:normal"/>
		<path fill="#424242" d="m 269.60938,75.689453 c -0.43516,5e-6 -0.79491,0.357813 -0.79493,0.792969 v 1.324219 h 0.5293 v -1.324219 c 10e-6,-0.151156 0.11448,-0.26367 0.26563,-0.263672 h 2.11523 c 0.15116,2e-6 0.26562,0.11251 0.26562,0.263672 v 1.324219 h 0.5293 v -1.324219 c 0,-0.435164 -0.35976,-0.792963 -0.79492,-0.792969 z" color="#000" font-family="sans-serif" font-weight="400" overflow="visible" style="line-height:normal;font-variant-ligatures:normal;font-variant-position:normal;font-variant-caps:normal;font-variant-numeric:normal;font-variant-alternates:normal;font-variant-east-asian:normal;font-feature-settings:normal;font-variation-settings:normal;text-indent:0;text-align:start;text-decoration-line:none;text-decoration-style:solid;text-decoration-color:#000;text-transform:none;text-orientation:mixed;shape-padding:0;shape-margin:0;inline-size:0;isolation:auto;mix-blend-mode:normal"/>
	</g>
	<circle cx="5.558" cy="5.8215" r="8" stroke="#ff0000" stroke-width="1" fill="none"/>
</svg>