<svg xmlns="http://www.w3.org/2000/svg" viewBox="-5 -5 60 60">
	<polygon fill="#80BC41" points="1 27.095 1.005 28.951 21.32 40.757 21.315 38.901"/>
	<polygon fill="#589441" points="21.315 38.901 21.32 40.757 49 24.776 48.995 22.919"/>
	<polygon fill="#A57859" points="1 28.859 1.005 30.715 21.32 42.521 21.315 40.665"/>
	<polygon fill="#91684B" points="21.315 40.665 21.32 42.521 49 26.54 48.995 24.684"/>
	<polygon fill="#A9C838" points="1 27.095 21.315 38.901 48.995 22.919 28.68 11.114"/>
	<polygon fill="#E8D8BF" points="41.33 18.445 13.852 34.557 7.428 30.815 34.949 14.77" enable-background="new"/>
	<polygon fill="#80BC41" points="13.838 33.852 13.841 34.634 14.242 34.867 14.239 34.085"/>
	<polygon fill="#589441" points="14.239 34.085 14.242 34.867 41.852 18.845 41.849 18.062"/>
	<polygon fill="#73AE43" points="13.838 33.852 14.239 34.085 41.849 18.062 41.448 17.829"/>
	<polygon fill="#80BC41" points="7.19 29.918 7.194 30.7 7.595 30.933 7.591 30.151"/>
	<polygon fill="#589441" points="7.591 30.151 7.595 30.933 35.205 14.911 35.201 14.128"/>
	<polygon fill="#73AE43" points="7.19 29.918 7.591 30.151 35.201 14.128 34.8 13.895"/>
	<g>
		<path fill="#80BC41" d="M26.7555,13.6682c-0.7765,0.4483-0.8655,1.1298-0.1904,1.5221
					c0.6749,0.3922,1.8517,0.3429,2.6282-0.1054c0.7765-0.4483,0.8616-1.1276,0.1867-1.5198
					C28.7049,13.1729,27.532,13.2199,26.7555,13.6682z"/>
		<path fill="#3F7337" d="M29.4936,13.0264c0,0.8805-0.7138,1.5943-1.5943,1.5943c-0.8805,0-1.5943-0.7138-1.5943-1.5943
				s0.7138-5.547,1.5943-5.547C28.7798,7.4793,29.4936,12.1459,29.4936,13.0264z"/>
		<path fill="#80BC41" d="M21.7118,16.5781c-0.7765,0.4483-0.8655,1.1298-0.1904,1.5221
					c0.6749,0.3922,1.8517,0.3429,2.6282-0.1054c0.7765-0.4483,0.8616-1.1276,0.1867-1.5198
					C23.6613,16.0827,22.4884,16.1297,21.7118,16.5781z"/>
		<path fill="#3F7337" d="M24.4499,15.9362c0,0.8805-0.7138,1.5943-1.5943,1.5943c-0.8805,0-1.5943-0.7138-1.5943-1.5943
				s0.7138-5.547,1.5943-5.547C23.7361,10.3891,24.4499,15.0557,24.4499,15.9362z"/>
		<path fill="#80BC41" d="M16.6682,19.4879c-0.7765,0.4483-0.8655,1.1298-0.1904,1.5221
					c0.6749,0.3922,1.8517,0.3429,2.6282-0.1054c0.7765-0.4483,0.8616-1.1276,0.1867-1.5198
					C18.6176,18.9925,17.4447,19.0395,16.6682,19.4879z"/>
		<path fill="#3F7337" d="M19.4063,18.846c0,0.8805-0.7138,1.5943-1.5943,1.5943c-0.8805,0-1.5943-0.7138-1.5943-1.5943
				c0-0.8805,0.7138-5.547,1.5943-5.547C18.6925,13.299,19.4063,17.9655,19.4063,18.846z"/>
		<path fill="#80BC41" d="M11.6246,22.3977c-0.7765,0.4483-0.8655,1.1298-0.1904,1.5221
					c0.6749,0.3922,1.8517,0.3429,2.6282-0.1054c0.7765-0.4483,0.8616-1.1276,0.1867-1.5198
					C13.574,21.9023,12.4011,21.9494,11.6246,22.3977z"/>
		<path fill="#3F7337" d="M14.3626,21.7558c0,0.8805-0.7138,1.5943-1.5943,1.5943c-0.8805,0-1.5943-0.7138-1.5943-1.5943
				s0.7138-5.547,1.5943-5.547C13.6489,16.2088,14.3626,20.8753,14.3626,21.7558z"/>
		<g>
			<path fill="#80BC41" d="M6.5809,25.3075c-0.7765,0.4483-0.8655,1.1298-0.1904,1.5221c0.6749,0.3922,1.8517,0.3429,2.6282-0.1054
					c0.7765-0.4483,0.8616-1.1276,0.1867-1.5198C8.5303,24.8121,7.3574,24.8592,6.5809,25.3075z"/>
			<path fill="#3F7337" d="M9.319,24.6656c0,0.8805-0.7138,1.5943-1.5943,1.5943s-1.5943-0.7138-1.5943-1.5943
				c0-0.8805,0.7138-5.547,1.5943-5.547S9.319,23.7851,9.319,24.6656z"/>
		</g>
	</g>
	<g>
		<path fill="#80BC41" d="M26.7555,13.6682c-0.7765,0.4483-0.8655,1.1298-0.1904,1.5221
					c0.6749,0.3922,1.8517,0.3429,2.6282-0.1054c0.7765-0.4483,0.8616-1.1276,0.1867-1.5198
					C28.7049,13.1729,27.532,13.2199,26.7555,13.6682z"/>
		<path fill="#3F7337" d="M29.4936,13.0264c0,0.8805-0.7138,1.5943-1.5943,1.5943c-0.8805,0-1.5943-0.7138-1.5943-1.5943
				s0.7138-5.547,1.5943-5.547C28.7798,7.4793,29.4936,12.1459,29.4936,13.0264z"/>
		<path fill="#80BC41" d="M21.7118,16.5781c-0.7765,0.4483-0.8655,1.1298-0.1904,1.5221
					c0.6749,0.3922,1.8517,0.3429,2.6282-0.1054c0.7765-0.4483,0.8616-1.1276,0.1867-1.5198
					C23.6613,16.0827,22.4884,16.1297,21.7118,16.5781z"/>
		<path fill="#3F7337" d="M24.4499,15.9362c0,0.8805-0.7138,1.5943-1.5943,1.5943c-0.8805,0-1.5943-0.7138-1.5943-1.5943
				s0.7138-5.547,1.5943-5.547C23.7361,10.3891,24.4499,15.0557,24.4499,15.9362z"/>
		<path fill="#80BC41" d="M16.6682,19.4879c-0.7765,0.4483-0.8655,1.1298-0.1904,1.5221
					c0.6749,0.3922,1.8517,0.3429,2.6282-0.1054c0.7765-0.4483,0.8616-1.1276,0.1867-1.5198
					C18.6176,18.9925,17.4447,19.0395,16.6682,19.4879z"/>
		<path fill="#3F7337" d="M19.4063,18.846c0,0.8805-0.7138,1.5943-1.5943,1.5943c-0.8805,0-1.5943-0.7138-1.5943-1.5943
				c0-0.8805,0.7138-5.547,1.5943-5.547C18.6925,13.299,19.4063,17.9655,19.4063,18.846z"/>
		<path fill="#80BC41" d="M11.6246,22.3977c-0.7765,0.4483-0.8655,1.1298-0.1904,1.5221
					c0.6749,0.3922,1.8517,0.3429,2.6282-0.1054c0.7765-0.4483,0.8616-1.1276,0.1867-1.5198
					C13.574,21.9023,12.4011,21.9494,11.6246,22.3977z"/>
		<path fill="#3F7337" d="M14.3626,21.7558c0,0.8805-0.7138,1.5943-1.5943,1.5943c-0.8805,0-1.5943-0.7138-1.5943-1.5943
				s0.7138-5.547,1.5943-5.547C13.6489,16.2088,14.3626,20.8753,14.3626,21.7558z"/>
		<g>
			<path fill="#80BC41" d="M6.5809,25.3075c-0.7765,0.4483-0.8655,1.1298-0.1904,1.5221c0.6749,0.3922,1.8517,0.3429,2.6282-0.1054
					c0.7765-0.4483,0.8616-1.1276,0.1867-1.5198C8.5303,24.8121,7.3574,24.8592,6.5809,25.3075z"/>
			<path fill="#3F7337" d="M9.319,24.6656c0,0.8805-0.7138,1.5943-1.5943,1.5943s-1.5943-0.7138-1.5943-1.5943
				c0-0.8805,0.7138-5.547,1.5943-5.547S9.319,23.7851,9.319,24.6656z"/>
		</g>
	</g>
	<g>
		<polygon fill="#3D3D3D" points="42.063 21.982 42.063 22.179 43.966 23.277 43.963 23.08"/>
		<polygon fill="#4F4D4D" points="43.963 23.08 43.966 23.277 44.852 22.762 44.852 22.565"/>
		<polygon fill="#686868" points="42.063 21.982 43.963 23.08 44.852 22.565 42.948 21.467"/>
		<polygon fill="#3D3D3D" points="31.448 27.862 31.448 28.059 33.351 29.157 33.348 28.96"/>
		<polygon fill="#4F4D4D" points="33.348 28.96 33.351 29.157 34.237 28.642 34.237 28.445"/>
		<polygon fill="#686868" points="31.448 27.862 33.348 28.96 34.237 28.445 32.333 27.347"/>
		<polygon fill="#704E2C" points="39.378 22.317 39.375 22.554 38.311 21.935 38.311 21.699"/>
		<polygon fill="#91684B" points="41.661 20.998 41.661 21.235 39.375 22.554 39.378 22.317"/>
		<polygon fill="#A57859" points="41.661 20.998 39.378 22.317 38.311 21.699 40.598 20.38"/>
		<g>
			<polygon fill="#FEE44B" points="41.084 12.602 41.07 20.826 40.908 20.92 40.921 12.696"/>
			<polygon fill="#F6D341" points="40.921 12.696 40.908 20.92 40.745 20.826 40.758 12.602"/>
			<polygon fill="#F1F1F1" points="41.084 12.602 40.921 12.696 40.758 12.602 40.92 12.508"/>
		</g>
		<g>
			<polygon fill="#FEE44B" points="39.255 13.664 39.242 21.887 39.08 21.982 39.093 13.758"/>
			<polygon fill="#F6D341" points="39.093 13.758 39.08 21.982 38.917 21.887 38.93 13.664"/>
			<polygon fill="#F1F1F1" points="39.255 13.664 39.093 13.758 38.93 13.664 39.092 13.57"/>
		</g>
		<g>
			<polygon fill="#704E2C" points="35.093 24.705 35.089 24.942 34.025 24.323 34.025 24.087"/>
			<polygon fill="#91684B" points="37.375 23.386 37.375 23.623 35.089 24.942 35.093 24.705"/>
			<polygon fill="#A57859" points="37.375 23.386 35.093 24.705 34.025 24.087 36.312 22.768"/>
			<polygon fill="#FEE44B" points="36.798 14.99 36.785 23.214 36.623 23.308 36.636 15.084"/>
			<polygon fill="#F6D341" points="36.636 15.084 36.623 23.308 36.459 23.214 36.473 14.99"/>
			<polygon fill="#F1F1F1" points="36.798 14.99 36.636 15.084 36.473 14.99 36.635 14.896"/>
			<g>
				<polygon fill="#FEE44B" points="34.97 16.052 34.956 24.275 34.794 24.369 34.808 16.146"/>
				<polygon fill="#F6D341" points="34.808 16.146 34.794 24.369 34.631 24.275 34.645 16.052"/>
				<polygon fill="#F1F1F1" points="34.97 16.052 34.808 16.146 34.645 16.052 34.807 15.958"/>
			</g>
		</g>
		<g>
			<polygon fill="#3D3D3D" points="43.943 10.449 43.906 22.33 43.458 22.59 43.495 10.71"/>
			<polygon fill="#686868" points="43.495 10.71 43.458 22.59 43.006 22.33 43.043 10.449"/>
			<polygon fill="#686868" points="43.943 10.449 43.495 10.71 43.043 10.449 43.492 10.189"/>
			<polygon fill="#DD454D" points="33.347 17.102 43.475 11.236 43.473 11.72 33.346 17.587"/>
			<polygon fill="#EF5A5A" points="32.926 16.859 43.053 10.992 43.475 11.236 33.347 17.102"/>
			<g>
				<polygon fill="#3D3D3D" points="33.395 16.301 33.357 28.182 32.909 28.442 32.946 16.562"/>
				<polygon fill="#686868" points="32.946 16.562 32.909 28.442 32.457 28.182 32.494 16.301"/>
				<polygon fill="#686868" points="33.395 16.301 32.946 16.562 32.494 16.301 32.943 16.041"/>
			</g>
		</g>
	</g>
	<g>
		<polygon fill="#515050" points="19.346 34.608 19.345 35.037 17.926 35.861 17.927 35.433"/>
		<polygon fill="#383838" points="17.927 35.433 17.926 35.861 16.497 35.036 16.498 34.608"/>
		<polygon fill="#5A5B5B" points="19.346 34.608 17.927 35.433 16.498 34.608 17.917 33.783"/>
		<polygon fill="#515050" points="18.928 34.185 18.926 34.613 17.924 35.196 17.925 34.767"/>
		<polygon fill="#383838" points="17.925 34.767 17.924 35.196 16.915 34.613 16.916 34.185"/>
		<polygon fill="#5A5B5B" points="18.928 34.185 17.925 34.767 16.916 34.185 17.919 33.602"/>
		<g>
			<polygon fill="#929393" points="17.497 25.231 17.506 34.18 17.921 34.421 17.912 25.472"/>
			<polygon fill="#686868" points="17.912 25.472 17.921 34.421 18.339 34.18 18.329 25.231"/>
			<polygon fill="#D7D7D7" points="17.497 25.231 17.912 25.472 18.329 25.231 17.914 24.99"/>
		</g>
		<g>
			<polygon fill="#F6D341" points="22.129 30.994 22.313 30.887 22.316 27.843 22.131 27.951"/>
			<polygon fill="#EFD874" points="22.131 27.951 22.316 27.843 18.209 25.472 18.025 25.579"/>
			<polygon fill="#FEE44B" points="18.025 25.579 18.022 28.623 22.129 30.994 22.131 27.951"/>
			<path fill="#686868" d="M18.2852,26.0333v2.4389l3.5825,2.0673l0.0026-2.4389L18.2852,26.0333z M21.8153,30.4506
						l-3.4778-2.0098v-2.3185l3.4804,2.0098L21.8153,30.4506z"/>
		</g>
	</g>
	<circle cx="25" cy="25" r="27.7" stroke="#0000ff" stroke-width="3" fill="none"/>
</svg>